<svg width="299" height="299" viewBox="0 0 299 299" fill="none" xmlns="http://www.w3.org/2000/svg">
<g clip-path="url(#clip0)">
<path d="M181.615 254.538C181.615 254.538 190.096 258.319 198.578 273.402C207.06 288.485 326.548 356.319 328.449 375.261C330.349 394.203 336.793 397.043 312.269 400.726C287.744 404.408 253.288 379.179 211.781 356.456C170.273 333.734 150.489 335.673 150.489 335.673L181.615 254.538Z" fill="white" stroke="#263238" stroke-width="1.1326" stroke-linecap="round" stroke-linejoin="round"/>
<path d="M233.485 294.146C204.298 268.211 171.488 233.128 133.682 220.533C123.92 217.394 114.869 212.369 107.042 205.744C107.042 205.744 80.4611 186.9 63.6347 185.979C44.3794 184.902 29.5119 205.274 20.5405 219.887C-19.3413 285.057 -24.5126 360.433 -26.0405 435.358H150.489C150.489 435.358 140.225 419.472 151.429 373.714C153.543 365.012 156.266 356.47 159.578 348.151C162.849 349.561 166.454 351.069 170.293 352.656C186.316 359.257 223.181 380.08 223.181 380.08L264.65 319.924C264.65 319.924 241.967 301.707 233.485 294.146Z" fill="white" stroke="#263238" stroke-width="1.1326" stroke-linecap="round" stroke-linejoin="round"/>
<path d="M72.45 198.281C67.2787 189.054 56.035 179.554 38.4251 189.701C15.6243 202.825 -52.1708 338.2 -56.8328 358.748C-61.4948 379.296 33.7435 392.479 71.0984 392.479C94.2272 392.436 117.339 391.214 140.343 388.816L147.689 393.4C147.689 393.4 147.689 411.147 154.231 412.988C160.774 414.829 181.322 414.947 187.845 411.127C194.368 407.307 192.526 397.121 192.526 397.121C192.526 397.121 197.188 417.67 204.651 419.53C207.126 420.175 209.719 420.215 212.213 419.648C212.8 419.507 213.341 419.216 213.782 418.804C214.223 418.391 214.549 417.871 214.729 417.295C214.909 416.718 214.936 416.105 214.807 415.514C214.678 414.924 214.399 414.378 213.995 413.928L212.036 411.597L199.128 383.116C199.128 383.116 195.562 367.719 190.9 367.719C186.238 367.719 148.707 367.23 148.707 367.23C148.707 367.23 85.202 359.767 58.1114 352.284C31.0207 344.801 16.7017 334.361 16.7017 334.361L68.6499 249.622" fill="white"/>
<path d="M138.697 380.941C124.672 379.296 81.7342 380.119 26.3973 372.675C-28.9397 365.232 -42.1618 352.029 -31.4078 348.738C-20.6538 345.447 15.6041 338.004 18.1506 338.004C20.6971 338.004 -28.0974 328.915 -28.0974 328.915L-1.82948 245.841C-27.2943 290.169 -53.9735 346.133 -56.8334 358.748C-61.515 379.296 33.7429 392.479 71.0978 392.479C94.2266 392.436 117.338 391.214 140.342 388.816L147.688 393.4C147.688 393.4 147.688 411.147 154.231 412.988C156.157 413.474 158.124 413.783 160.107 413.909C162.808 411.619 164.612 408.448 165.2 404.957C166.591 396.142 152.742 382.685 138.697 380.941Z" fill="#4484FF"/>
<path opacity="0.5" d="M138.697 380.941C124.672 379.296 81.7342 380.119 26.3973 372.675C-28.9397 365.232 -42.1618 352.029 -31.4078 348.738C-20.6538 345.447 15.6041 338.004 18.1506 338.004C20.6971 338.004 -28.0974 328.915 -28.0974 328.915L-1.82948 245.841C-27.2943 290.169 -53.9735 346.133 -56.8334 358.748C-61.515 379.296 33.7429 392.479 71.0978 392.479C94.2266 392.436 117.338 391.214 140.342 388.816L147.688 393.4C147.688 393.4 147.688 411.147 154.231 412.988C156.157 413.474 158.124 413.783 160.107 413.909C162.808 411.619 164.612 408.448 165.2 404.957C166.591 396.142 152.742 382.685 138.697 380.941Z" fill="white"/>
<path d="M72.45 198.281C67.2787 189.054 56.035 179.554 38.4251 189.701C15.6243 202.825 -52.1708 338.2 -56.8328 358.748C-61.4948 379.296 33.7435 392.479 71.0984 392.479C94.2272 392.436 117.339 391.214 140.343 388.816L147.689 393.4C147.689 393.4 147.689 411.147 154.231 412.988C160.774 414.829 181.322 414.947 187.845 411.127C194.368 407.307 192.526 397.121 192.526 397.121C192.526 397.121 197.188 417.67 204.651 419.53C207.126 420.175 209.719 420.215 212.213 419.648C212.8 419.507 213.341 419.216 213.782 418.804C214.223 418.391 214.549 417.871 214.729 417.295C214.909 416.718 214.936 416.105 214.807 415.514C214.678 414.924 214.399 414.378 213.995 413.928L212.036 411.597L199.128 383.116C199.128 383.116 195.562 367.719 190.9 367.719C186.238 367.719 148.707 367.23 148.707 367.23C148.707 367.23 85.202 359.767 58.1114 352.284C31.0207 344.801 16.7017 334.361 16.7017 334.361L68.6499 249.622" stroke="#263238" stroke-width="1.1326" stroke-linecap="round" stroke-linejoin="round"/>
<path d="M75.9945 200.69C75.9945 200.69 71.019 184.04 51.039 183.491C31.0589 182.943 16.7007 206.233 7.21994 220.102C-2.2608 233.97 -27.1575 287.76 -29.9978 294.42C-32.8381 301.08 -48.8418 329.914 -48.8418 329.914C-48.8418 329.914 -40.5363 337.749 -20.5563 337.749H23.2628C23.2628 337.749 24.9082 337.181 26.0247 332.206C26.5963 330.024 26.97 327.795 27.1412 325.546L77.0522 242.903" fill="white"/>
<path d="M75.9945 200.69C75.9945 200.69 71.019 184.04 51.039 183.491C31.0589 182.943 16.7007 206.233 7.21994 220.102C-2.2608 233.97 -27.1575 287.76 -29.9978 294.42C-32.8381 301.08 -48.8418 329.914 -48.8418 329.914C-48.8418 329.914 -40.5363 337.749 -20.5563 337.749H23.2628C23.2628 337.749 24.9082 337.181 26.0247 332.206C26.5963 330.024 26.97 327.795 27.1412 325.546L77.0522 242.903" stroke="#263238" stroke-width="1.1326" stroke-linecap="round" stroke-linejoin="round"/>
<path d="M133.682 220.533C123.92 217.394 114.869 212.369 107.042 205.744C107.042 205.744 102.654 202.629 96.3271 198.888C99.8335 216.067 110.548 265.488 118.971 273.852C127.061 281.942 144.201 247.369 151.018 227.937C145.443 225.016 139.647 222.541 133.682 220.533V220.533Z" fill="white" stroke="#263238" stroke-width="1.1326" stroke-linecap="round" stroke-linejoin="round"/>
<path d="M187.335 188.506C200.414 188.506 211.017 174.913 211.017 158.144C211.017 141.376 200.414 127.782 187.335 127.782C174.256 127.782 163.653 141.376 163.653 158.144C163.653 174.913 174.256 188.506 187.335 188.506Z" fill="white" stroke="#263238" stroke-width="1.1326" stroke-linecap="round" stroke-linejoin="round"/>
<path d="M108.178 151.347C108.178 151.347 104.77 189.877 107.042 205.744C109.315 221.61 118.364 271.462 125.162 257.868C131.959 244.274 155.778 200.083 155.778 200.083C155.778 200.083 114.976 169.486 108.178 151.347Z" fill="white"/>
<path d="M108.178 151.347C108.178 151.347 104.77 189.877 107.042 205.744C107.924 212.012 109.902 223.589 112.351 234.46L140.362 219.103L152.115 206.762L155.7 200.083C155.7 200.083 114.976 169.486 108.178 151.347Z" fill="#4484FF"/>
<path opacity="0.5" d="M108.178 151.347C108.178 151.347 104.77 189.877 107.042 205.744C107.924 212.012 109.902 223.589 112.351 234.46L140.362 219.103L152.115 206.762L155.7 200.083C155.7 200.083 114.976 169.486 108.178 151.347Z" fill="white"/>
<path d="M108.178 151.347C108.178 151.347 104.77 189.877 107.042 205.744C109.315 221.61 118.364 271.462 125.162 257.868C131.959 244.274 155.778 200.083 155.778 200.083C155.778 200.083 114.976 169.486 108.178 151.347Z" stroke="#263238" stroke-width="1.1326" stroke-linecap="round" stroke-linejoin="round"/>
<path d="M101.361 144.55C101.361 144.55 93.526 96.9503 100.245 78.8115C106.964 60.6727 131.978 51.6229 161.439 60.6923C190.899 69.7617 207.902 78.8115 212.368 99.2225C216.834 119.634 201.046 132.092 201.046 132.092C201.046 132.092 187.432 100.359 171.664 96.9503C155.895 93.5419 141.067 92.4254 143.339 103.747C145.611 115.069 146.747 129.819 139.95 135.48C133.153 141.141 132.017 143.414 128.609 152.483C125.2 161.553 115.014 170.622 107.062 160.318C99.1087 150.015 101.361 144.55 101.361 144.55Z" fill="#263238" stroke="#263238" stroke-width="1.1326" stroke-linecap="round" stroke-linejoin="round"/>
<path d="M109.295 147.939C109.295 147.939 107.042 133.208 96.8366 138.889C86.6311 144.569 101.362 166.077 101.362 166.077C103.003 181.37 108.893 195.898 118.364 208.016C134.231 228.407 161.654 231.169 177.325 218.143C194.954 203.491 203.377 136.558 203.377 136.558C203.377 136.558 210.175 127.488 195.542 104.825C180.91 82.1611 130.901 82.1612 127.551 91.2305C124.201 100.3 137.757 118.419 134.348 125.216C130.94 132.013 120.754 124.1 118.482 136.558C116.209 149.016 113.839 158.144 109.295 147.939Z" fill="white"/>
<path d="M195.425 104.884C180.694 82.2199 130.783 82.2199 127.434 91.2893C124.084 100.359 137.639 118.478 134.231 125.275C130.822 132.072 120.636 124.158 118.364 136.617C116.092 149.075 113.839 158.164 109.295 147.939C109.295 147.939 107.042 133.208 96.8366 138.889C86.6311 144.569 101.362 166.077 101.362 166.077C103.003 181.37 108.893 195.898 118.364 208.016C123.115 214.292 129.421 219.219 136.66 222.311C143.898 225.403 151.818 226.552 159.637 225.645C152.865 224.619 146.335 222.376 140.362 219.025C124.691 209.936 120.538 192.6 125.494 173.599C130.45 154.599 142.007 108.37 147.825 103.669C153.643 98.9679 157.619 102.592 170.077 114.149C182.535 125.706 189.078 124.883 189.078 124.883L201.83 116.637C200.045 112.538 197.901 108.605 195.425 104.884Z" fill="#4484FF"/>
<path opacity="0.5" d="M195.425 104.884C180.694 82.2199 130.783 82.2199 127.434 91.2893C124.084 100.359 137.639 118.478 134.231 125.275C130.822 132.072 120.636 124.158 118.364 136.617C116.092 149.075 113.839 158.164 109.295 147.939C109.295 147.939 107.042 133.208 96.8366 138.889C86.6311 144.569 101.362 166.077 101.362 166.077C103.003 181.37 108.893 195.898 118.364 208.016C123.115 214.292 129.421 219.219 136.66 222.311C143.898 225.403 151.818 226.552 159.637 225.645C152.865 224.619 146.335 222.376 140.362 219.025C124.691 209.936 120.538 192.6 125.494 173.599C130.45 154.599 142.007 108.37 147.825 103.669C153.643 98.9679 157.619 102.592 170.077 114.149C182.535 125.706 189.078 124.883 189.078 124.883L201.83 116.637C200.045 112.538 197.901 108.605 195.425 104.884Z" fill="white"/>
<path d="M109.295 147.939C109.295 147.939 107.042 133.208 96.8366 138.889C86.6311 144.569 101.362 166.077 101.362 166.077C103.003 181.37 108.893 195.898 118.364 208.016C134.231 228.407 161.654 231.169 177.325 218.143C194.954 203.491 203.377 136.558 203.377 136.558C203.377 136.558 210.175 127.488 195.542 104.825C180.91 82.1611 130.901 82.1612 127.551 91.2305C124.201 100.3 137.757 118.419 134.348 125.216C130.94 132.013 120.754 124.1 118.482 136.558C116.209 149.016 113.839 158.144 109.295 147.939Z" stroke="#263238" stroke-width="1.1326" stroke-linecap="round" stroke-linejoin="round"/>
<path d="M152.625 187.154C138.305 184.04 135.191 173.443 135.191 173.443" stroke="#263238" stroke-width="1.1326" stroke-linecap="round" stroke-linejoin="round"/>
<path d="M156.366 157.263C149.51 150.426 143.281 149.799 143.281 149.799" stroke="#263238" stroke-width="1.1326" stroke-linecap="round" stroke-linejoin="round"/>
<path d="M138.932 172.209L130.195 174.089" stroke="#263238" stroke-width="1.1326" stroke-linecap="round" stroke-linejoin="round"/>
<path d="M135.191 173.462C133.81 175.317 132.822 177.434 132.286 179.684C131.751 181.934 131.679 184.269 132.076 186.547C133.232 194.265 141.988 196.165 141.988 196.165C141.988 196.165 142.654 185.92 147.649 186.547C147.649 186.547 137.679 180.925 135.191 173.462Z" stroke="#263238" stroke-width="1.1326" stroke-linecap="round" stroke-linejoin="round"/>
<path d="M134.231 173.913C134.231 173.913 132.879 186.861 142.066 190.269" stroke="#263238" stroke-width="0.566302" stroke-linecap="round" stroke-linejoin="round"/>
<path d="M184.2 138.752C184.2 138.752 174.759 148.193 174.759 158.477C174.759 168.761 184.2 175.636 176.483 178.222C168.765 180.808 166.179 179.064 166.179 179.064" stroke="#263238" stroke-width="1.1326" stroke-linecap="round" stroke-linejoin="round"/>
<path d="M156.17 149.682C155.367 152.855 154.211 151.445 152.625 151.034C151.038 150.622 149.51 151.386 150.313 148.213C151.116 145.04 153.075 142.767 154.681 143.179C156.288 143.59 156.954 146.489 156.17 149.682Z" fill="#263238"/>
<path d="M188.765 154.814C187.962 158.007 186.003 160.26 184.397 159.848C182.79 159.437 182.105 156.538 182.908 153.345C183.711 150.152 185.67 147.919 187.276 148.311C188.882 148.703 189.568 151.641 188.765 154.814Z" fill="#263238"/>
<path d="M143.888 128.468C143.888 128.468 155.778 124.785 167.217 140.378" stroke="#263238" stroke-width="1.1326" stroke-linecap="round" stroke-linejoin="round"/>
<path d="M187.628 136.186C187.628 136.186 196.208 132.758 197.932 141.337" stroke="#263238" stroke-width="1.1326" stroke-linecap="round" stroke-linejoin="round"/>
<path d="M127.434 91.2893C127.434 91.2893 133.095 101.475 147.826 103.747C162.556 106.02 180.695 103.747 184.103 116.225C187.511 128.703 203.358 143.414 221.497 135.48C239.636 127.547 241.889 92.3863 230.566 77.695C219.244 63.0038 205.631 65.2173 192.036 59.5562C178.442 53.8952 178.442 43.6897 158.031 43.6897C137.62 43.6897 113.84 62.945 127.434 74.2866" fill="#263238"/>
<path d="M127.434 91.2893C127.434 91.2893 133.095 101.475 147.826 103.747C162.556 106.02 180.695 103.747 184.103 116.225C187.511 128.703 203.358 143.414 221.497 135.48C239.636 127.547 241.889 92.3863 230.566 77.695C219.244 63.0038 205.631 65.2173 192.036 59.5562C178.442 53.8952 178.442 43.6897 158.031 43.6897C137.62 43.6897 113.84 62.945 127.434 74.2866" stroke="#263238" stroke-width="1.1326" stroke-linecap="round" stroke-linejoin="round"/>
<path d="M103.849 176.753C116.929 176.753 127.532 163.16 127.532 146.391C127.532 129.623 116.929 116.029 103.849 116.029C90.7699 116.029 80.167 129.623 80.167 146.391C80.167 163.16 90.7699 176.753 103.849 176.753Z" fill="white" stroke="#263238" stroke-width="1.1326" stroke-linecap="round" stroke-linejoin="round"/>
<path d="M100.127 168.448C109.561 168.448 117.208 158.634 117.208 146.528C117.208 134.423 109.561 124.609 100.127 124.609C90.6938 124.609 83.0464 134.423 83.0464 146.528C83.0464 158.634 90.6938 168.448 100.127 168.448Z" fill="#263238" stroke="#263238" stroke-width="1.1326" stroke-linecap="round" stroke-linejoin="round"/>
<path d="M96.8365 143.316C95.766 143.321 94.7304 142.936 93.9229 142.233C93.1155 141.53 92.5915 140.557 92.4487 139.496C91.2834 129.08 91.3163 118.564 92.5467 108.155C92.6136 107.576 92.7938 107.016 93.0771 106.507C93.3604 105.998 93.7411 105.549 94.1977 105.188C94.6542 104.826 95.1776 104.557 95.738 104.397C96.2983 104.238 96.8846 104.19 97.4634 104.257C98.0421 104.324 98.6021 104.504 99.1112 104.787C99.6203 105.07 100.069 105.451 100.431 105.908C100.793 106.364 101.061 106.888 101.221 107.448C101.381 108.008 101.428 108.595 101.361 109.173C100.241 118.861 100.195 128.643 101.224 138.34C101.307 138.917 101.275 139.504 101.129 140.068C100.983 140.632 100.728 141.162 100.376 141.627C100.024 142.091 99.5842 142.481 99.0809 142.775C98.5776 143.068 98.0212 143.259 97.4438 143.335C97.2412 143.348 97.0379 143.341 96.8365 143.316Z" fill="white" stroke="#263238" stroke-width="1.1326" stroke-linecap="round" stroke-linejoin="round"/>
<path d="M187.119 57.186C188.638 58.1273 190.23 58.946 191.879 59.6345C200.067 63.0429 208.274 63.5522 215.973 66.7059C215.803 65.6885 215.43 64.7157 214.876 63.846C204.122 46.7846 172.702 19.929 130.763 40.3401C107.434 51.6425 93.0951 74.9526 89.1775 107.704C88.956 109.748 89.5465 111.797 90.8217 113.409C92.0968 115.021 93.9545 116.068 95.9942 116.323H96.9148C98.8132 116.304 100.64 115.597 102.056 114.332C103.472 113.067 104.381 111.332 104.613 109.448C106.807 90.4665 114.407 65.4719 137.639 54.1498C159.382 43.6505 176.208 49.4682 187.119 57.186Z" fill="white" stroke="#263238" stroke-width="1.1326" stroke-linecap="round" stroke-linejoin="round"/>
</g>
<defs>
<clipPath id="clip0">
<rect width="299" height="299" fill="white"/>
</clipPath>
</defs>
</svg>
