<svg width="72" height="81" viewBox="0 0 72 81" fill="none" xmlns="http://www.w3.org/2000/svg">
<path d="M45.7833 23.6231L45.5638 24.6723L46.6246 24.519C47.1459 24.4437 47.6793 24.4047 48.2223 24.4047C54.3367 24.4047 59.2934 29.3614 59.2934 35.4757C59.2934 41.5901 54.3367 46.5468 48.2223 46.5468H14.1059C7.99153 46.5468 3.03485 41.5901 3.03485 35.4757C3.03485 32.252 4.41173 29.351 6.61175 27.3267C8.58406 25.5119 11.2148 24.4047 14.1059 24.4047H15.6407C17.835 24.4047 19.7186 23.415 21.1527 22.2414C22.5864 21.0682 23.6313 19.6635 24.1665 18.7034L24.2127 18.6203L24.2369 18.5284C25.4822 13.7771 29.8063 10.2728 34.9469 10.2728C41.0613 10.2728 46.018 15.2295 46.018 21.3439C46.018 22.1259 45.937 22.8882 45.7833 23.6231Z" stroke="#197BBD" stroke-width="1.5"/>
<path d="M40.0389 62.3518V52.8613" stroke="#197BBD" stroke-width="1.5" stroke-linecap="round" stroke-linejoin="round"/>
<path d="M35.2947 57.6065L40.04 52.8613L44.7852 57.6065" stroke="#197BBD" stroke-width="1.5" stroke-linecap="round" stroke-linejoin="round"/>
<path d="M23.0927 44.7274L27.8379 39.9822L32.5832 44.7274" stroke="#197BBD" stroke-width="0.683017" stroke-linecap="round" stroke-linejoin="round"/>
<g clip-path="url(#clip0)">
<path d="M24.9463 60.3988L16.3182 69.0269C15.7887 69.5564 15.7887 70.4148 16.3182 70.9443L22.0703 76.6964C22.5997 77.2258 23.4582 77.2258 23.9876 76.6964L32.6157 68.0682C33.1452 67.5388 33.1452 66.6803 32.6157 66.1509L26.8637 60.3988C26.3342 59.8693 25.4758 59.8693 24.9463 60.3988Z" stroke="#197BBD" stroke-width="1.5" stroke-linecap="round" stroke-linejoin="round"/>
<path d="M18.2358 72.8613L28.7813 62.3158" stroke="#197BBD" stroke-width="1.5" stroke-linecap="round" stroke-linejoin="round"/>
</g>
<circle cx="17.1596" cy="17.8721" r="11.7215" transform="rotate(-30 17.1596 17.8721)" stroke="#197BBD" stroke-width="1.5"/>
<path d="M20.86 17.3756C21.0781 17.7534 21.177 18.1618 21.1566 18.6007C21.1444 19.0348 21.0128 19.4612 20.7617 19.88C20.5189 20.294 20.1735 20.6631 19.7255 20.9874L20.5293 22.3796C20.591 22.4864 20.6038 22.594 20.5678 22.7024C20.5448 22.8142 20.4799 22.901 20.3731 22.9626C20.2663 23.0243 20.1547 23.0395 20.0381 23.0082C19.9344 22.9805 19.8518 22.9132 19.7901 22.8064L18.9934 21.4265C18.457 21.6924 17.9266 21.8454 17.4021 21.8854C16.8776 21.9253 16.3133 21.8679 15.7091 21.7129C15.5631 21.6877 15.4569 21.6176 15.3905 21.5026C15.3336 21.404 15.3184 21.2923 15.3449 21.1675C15.3796 21.038 15.4463 20.9447 15.5449 20.8878C15.6434 20.8309 15.7575 20.8198 15.887 20.8545C16.8224 21.1468 17.718 21.0952 18.5738 20.6996L16.5821 17.25C15.6725 17.4575 14.9104 17.5033 14.2958 17.3872C13.6812 17.2711 13.1772 16.8722 12.7836 16.1905C12.4374 15.5909 12.3658 14.9642 12.5687 14.3104C12.767 13.6484 13.2085 13.0759 13.8933 12.5929L13.3456 11.6442C13.284 11.5375 13.267 11.4322 13.2948 11.3286C13.3261 11.212 13.3951 11.1229 13.5018 11.0612C13.6086 10.9996 13.7162 10.9868 13.8246 11.0227C13.9364 11.0458 14.0232 11.1107 14.0848 11.2174L14.6254 12.1538C15.0845 11.9435 15.5503 11.8115 16.023 11.7576C16.4956 11.7037 16.9252 11.7459 17.3117 11.8842C17.5155 11.9527 17.6459 12.0362 17.7028 12.1348C17.7549 12.2251 17.7636 12.3351 17.7289 12.4647C17.6895 12.586 17.6205 12.6751 17.5219 12.732C17.4398 12.7794 17.3534 12.791 17.2627 12.7667C16.941 12.6458 16.5831 12.595 16.1891 12.6144C15.7951 12.6338 15.4162 12.7267 15.0522 12.893L16.987 16.2441C17.5863 16.1062 18.1089 16.0344 18.5547 16.0289C19.004 16.0105 19.4262 16.1062 19.8212 16.3162C20.2197 16.5132 20.566 16.8664 20.86 17.3756ZM13.5332 15.7248C13.7703 16.1355 14.0996 16.3834 14.5211 16.4686C14.9509 16.5491 15.479 16.5343 16.1055 16.4245L14.313 13.3198C13.8534 13.6618 13.5516 14.0496 13.4077 14.4831C13.259 14.9085 13.3008 15.3224 13.5332 15.7248ZM19.3059 20.2605C19.7525 19.915 20.0519 19.5232 20.2041 19.0849C20.3515 18.6384 20.3114 18.218 20.0838 17.8237C19.829 17.4014 19.4885 17.1435 19.0622 17.0501C18.6312 16.9485 18.0959 16.9509 17.4565 17.0573L19.3059 20.2605Z" fill="#197BBD"/>
<path d="M2.28485 35.4745C2.28485 42.0031 7.57732 47.2955 14.1059 47.2955H48.2223C54.7509 47.2955 60.0434 42.0031 60.0434 35.4745C60.0434 28.9459 54.7509 23.6534 48.2223 23.6534C47.6433 23.6534 47.0741 23.695 46.5174 23.7755C46.6816 22.9903 46.768 22.1765 46.768 21.3426C46.768 14.814 41.4755 9.52155 34.9469 9.52155C29.4569 9.52155 24.8411 13.264 23.5114 18.337C22.5235 20.1091 19.5665 23.6534 15.6407 23.6534H14.1059C11.0194 23.6534 8.20922 24.8363 6.10391 26.7735C3.75604 28.9339 2.28485 32.0324 2.28485 35.4745Z" fill="white"/>
<path d="M45.7833 23.6219L45.5638 24.671L46.6246 24.5178C47.1459 24.4425 47.6793 24.4034 48.2223 24.4034C54.3367 24.4034 59.2934 29.3601 59.2934 35.4745C59.2934 41.5889 54.3367 46.5455 48.2223 46.5455H14.1059C7.99153 46.5455 3.03485 41.5889 3.03485 35.4745C3.03485 32.2508 4.41173 29.3497 6.61175 27.3254C8.58406 25.5106 11.2148 24.4034 14.1059 24.4034H15.6407C17.835 24.4034 19.7186 23.4138 21.1527 22.2402C22.5864 21.067 23.6313 19.6622 24.1665 18.7021L24.2127 18.6191L24.2369 18.5271C25.4822 13.7759 29.8063 10.2715 34.9469 10.2715C41.0613 10.2715 46.018 15.2282 46.018 21.3426C46.018 22.1246 45.937 22.8869 45.7833 23.6219Z" stroke="#197BBD" stroke-width="1.5"/>
<path d="M68.3507 14.4884C68.1996 16.1237 67.5858 17.6823 66.5812 18.9815C65.5767 20.2808 64.2229 21.2671 62.6782 21.8251C61.1336 22.383 59.4619 22.4895 57.859 22.1321C56.256 21.7747 54.788 20.9681 53.6267 19.8068C52.4653 18.6455 51.6588 17.1775 51.3014 15.5745C50.9439 13.9715 51.0504 12.2999 51.6084 10.7552C52.1663 9.21058 53.1526 7.85676 54.4519 6.8522C55.7512 5.84764 57.3097 5.23389 58.9451 5.08276C57.9876 6.37809 57.5269 7.97405 57.6467 9.58037C57.7665 11.1867 58.4588 12.6967 59.5978 13.8356C60.7368 14.9746 62.2468 15.667 63.8531 15.7868C65.4594 15.9066 67.0554 15.4458 68.3507 14.4884V14.4884Z" stroke="#197BBD" stroke-width="1.5" stroke-linecap="round" stroke-linejoin="round"/>
<rect x="19.7032" y="38.6354" width="16.2694" height="13.4883" fill="white"/>
<path d="M27.838 49.4714V39.9809" stroke="#197BBD" stroke-width="1.5" stroke-linecap="round" stroke-linejoin="round"/>
<path d="M27.838 48.1258V38.6354" stroke="#197BBD" stroke-width="1.5" stroke-linecap="round" stroke-linejoin="round"/>
<path d="M23.0925 43.3806L27.8378 38.6354L32.583 43.3806" stroke="#197BBD" stroke-width="1.5" stroke-linecap="round" stroke-linejoin="round"/>
<defs>
<clipPath id="clip0">
<rect width="16.2694" height="16.2694" fill="white" transform="translate(12.9635 68.5473) rotate(-45)"/>
</clipPath>
</defs>
</svg>