<svg width="583" height="300" viewBox="0 0 583 300" fill="none" xmlns="http://www.w3.org/2000/svg">
<path d="M54.4969 129.706H124.159C124.159 129.706 144.461 132.364 136.073 152.211H154.555C157.46 148.181 159.339 143.504 160.03 138.584C160.721 133.665 160.204 128.651 158.522 123.976C152.835 107.655 133.813 104.57 133.813 104.57H60.1836C60.1836 104.57 42.0714 112.063 54.4969 129.706Z" fill="#263238" stroke="#263238" stroke-width="1.1326" stroke-linecap="round" stroke-linejoin="round"/>
<path d="M213.071 227.191C205.721 204.444 195.016 187.085 197.689 161.694C198.826 150.96 203.375 140.525 203.788 129.763C204.769 100.305 168.061 100.59 158.933 75.4826C150.915 53.4323 150.247 44.0776 134.21 43.4094C118.174 42.7412 64.036 36.7275 51.3404 40.0685C38.6447 43.4094 29.2758 74.1889 18.6416 87.5101C8.00742 100.831 -4.74509 119.597 3.9414 144.377C12.6279 169.157 24.6411 201.785 25.9349 229.863C27.2286 257.942 27.2712 284.655 27.2712 284.655H219.085C219.085 284.655 220.421 249.909 213.071 227.191ZM129.533 148.998H78.7362C74.0372 148.866 69.5749 146.907 66.2979 143.536C63.0208 140.166 61.1874 135.651 61.1874 130.95C61.1874 126.249 63.0208 121.733 66.2979 118.363C69.5749 114.993 74.0372 113.033 78.7362 112.901H129.533C134.232 113.033 138.694 114.993 141.971 118.363C145.248 121.733 147.082 126.249 147.082 130.95C147.082 135.651 145.248 140.166 141.971 143.536C138.694 146.907 134.232 148.866 129.533 148.998V148.998Z" fill="#4484FF" stroke="#263238" stroke-width="1.1326" stroke-linecap="round" stroke-linejoin="round"/>
<path d="M25.8499 75.9945C38.2185 82.449 56.3023 95.0878 67.0787 117.223C70.3277 114.432 74.4674 112.894 78.7507 112.887H129.548C132.036 112.891 134.497 113.412 136.773 114.418C139.049 115.424 141.091 116.893 142.769 118.73L143.153 118.986C148.84 109.248 157.014 96.7796 166.284 86.9699C163.049 83.7007 160.549 79.7799 158.948 75.4685C150.93 53.4182 150.261 44.0635 134.225 43.3953C118.188 42.7271 64.0505 36.7134 51.3549 40.0544C41.5737 42.6276 33.7829 61.3938 25.8499 75.9945Z" fill="#263238" stroke="#263238" stroke-width="1.1326" stroke-linecap="round" stroke-linejoin="round"/>
<path d="M60.9371 285.323H201.229C200.22 272.628 197.76 242.673 195.684 225.186C193.012 202.439 191.675 187.753 184.993 181.114C178.311 174.475 136.215 142.984 124.159 141.648C124.159 141.648 89.3993 138.975 78.6655 140.98C67.9318 142.984 45.9668 177.73 45.9668 183.744C45.9668 189.445 61.6053 247.933 60.9371 285.323Z" fill="#263238" stroke="#263238" stroke-width="1.1326" stroke-linecap="round" stroke-linejoin="round"/>
<path d="M33.2853 223.85C31.2807 195.771 9.89858 130.957 5.22123 120.266C4.00916 116.872 3.83592 113.195 4.72365 109.703C0.0669526 120.719 -0.232853 133.092 3.88485 144.321C12.5713 169.044 24.5988 201.785 25.9352 229.863C27.2716 257.942 27.2716 284.655 27.2716 284.655H32.8304C33.4132 270.68 34.9487 247.066 33.2853 223.85Z" fill="#263238" stroke="#263238" stroke-width="1.1326" stroke-linecap="round" stroke-linejoin="round"/>
<path d="M150.247 182.408C142.229 169.712 116.127 175.726 95.4413 175.057C74.7558 174.389 72.6943 180.403 72.6943 191.762C72.6943 201.416 82.8309 265.59 85.8733 284.655H171.075C171.075 247.336 157.896 194.52 150.247 182.408Z" fill="#4484FF" stroke="#263238" stroke-width="1.1326" stroke-linecap="round" stroke-linejoin="round"/>
<path d="M123.036 174.247C114.364 174.418 104.896 175.285 96.2944 175.086C99.9482 186.914 114.236 235.991 115.473 284.655H142.314C140.935 262.448 136.5 213.67 123.036 174.247Z" fill="white" stroke="#263238" stroke-width="1.1326" stroke-linecap="round" stroke-linejoin="round"/>
<path d="M246.695 162.035C246.695 162.035 252.85 164.779 259.006 175.726C265.162 186.673 351.885 235.906 353.264 249.653C354.643 263.401 359.32 265.462 341.521 268.135C323.721 270.808 298.714 252.497 268.589 236.005C238.463 219.514 224.104 220.921 224.104 220.921L246.695 162.035Z" fill="white" stroke="#263238" stroke-width="1.1326" stroke-linecap="round" stroke-linejoin="round"/>
<path d="M335.336 234.768C335.336 234.768 316.172 237.242 309.377 245.274C302.581 253.307 313.059 265.86 319.556 268.235C326.053 270.609 345.843 268.761 351.402 258.283C356.96 247.805 352.638 245.303 345.217 239.801" fill="white"/>
<path d="M335.336 234.768C335.336 234.768 316.172 237.242 309.377 245.274C302.581 253.307 313.059 265.86 319.556 268.235C326.053 270.609 345.843 268.761 351.402 258.283C356.96 247.805 352.638 245.303 345.217 239.801" stroke="#263238" stroke-width="1.1326" stroke-linecap="round" stroke-linejoin="round"/>
<path d="M319.399 252.596C319.399 252.596 312.291 257.984 310.656 259.491C309.021 260.998 306.619 267.567 304.969 268.732C303.32 269.898 297.235 270.922 296.553 272.599C295.871 274.277 301.941 276.139 306.647 275.969C311.353 275.798 315.049 270.282 319.584 268.235C322.523 266.986 325.653 266.246 328.839 266.045C328.839 266.045 333.033 256.804 331.356 253.108C329.678 249.412 323.195 249.909 319.399 252.596Z" fill="white" stroke="#263238" stroke-width="1.1326" stroke-linecap="round" stroke-linejoin="round"/>
<path d="M336.261 242.673C334.761 242.403 333.225 242.403 331.726 242.673C328.085 243.19 324.484 243.96 320.949 244.976C319.201 245.857 316.499 256.961 315.191 262.207C313.883 267.453 308.694 276.907 310.926 277.348C313.158 277.788 318.66 279.025 319.599 275.656C321.12 270.282 324.489 260.288 324.489 260.288C324.489 260.288 321.859 269.912 323.167 271.661C324.475 273.41 345.473 272.969 348.103 272.087C350.734 271.206 356.847 259.847 357.287 253.719C357.614 248.502 342.872 243.938 336.261 242.673Z" fill="white" stroke="#263238" stroke-width="1.1326" stroke-linecap="round" stroke-linejoin="round"/>
<path d="M332.167 272.429L337.555 251.416" stroke="#263238" stroke-width="1.1326" stroke-linecap="round" stroke-linejoin="round"/>
<path d="M343.597 272.102L348.644 252.269" stroke="#263238" stroke-width="1.1326" stroke-linecap="round" stroke-linejoin="round"/>
<path d="M324.446 260.259L327.119 250.748" stroke="#263238" stroke-width="1.1326" stroke-linecap="round" stroke-linejoin="round"/>
<path d="M284.341 190.781C263.158 171.958 239.345 146.496 211.906 137.354C204.821 135.076 198.252 131.429 192.571 126.621C192.571 126.621 173.279 112.944 161.067 112.276C147.092 111.494 136.301 126.28 129.79 136.885C100.844 184.185 97.0908 238.891 95.9819 293.271H224.104C224.104 293.271 216.655 281.741 224.787 248.53C226.32 242.215 228.297 236.015 230.701 229.977C233.075 231.001 235.691 232.096 238.477 233.247C250.107 238.038 276.863 253.151 276.863 253.151L306.96 209.491C306.96 209.491 290.497 196.269 284.341 190.781Z" fill="white" stroke="#263238" stroke-width="1.1326" stroke-linecap="round" stroke-linejoin="round"/>
<path d="M167.464 121.204C163.711 114.508 155.55 107.613 142.769 114.977C126.221 124.502 77.0165 222.755 73.6329 237.669C70.2493 252.582 139.372 262.15 166.483 262.15C183.27 262.119 200.044 261.232 216.74 259.491L222.071 262.818C222.071 262.818 222.071 275.699 226.819 277.035C231.568 278.371 246.481 278.457 251.215 275.684C255.95 272.912 254.613 265.519 254.613 265.519C254.613 265.519 257.997 280.433 263.414 281.783C265.21 282.251 267.092 282.28 268.901 281.869C269.328 281.767 269.72 281.555 270.04 281.256C270.36 280.957 270.597 280.579 270.728 280.161C270.858 279.742 270.878 279.297 270.784 278.869C270.691 278.44 270.488 278.044 270.195 277.717L268.773 276.026L259.404 255.354C259.404 255.354 256.817 244.18 253.433 244.18C250.05 244.18 222.81 243.824 222.81 243.824C222.81 243.824 176.719 238.408 157.057 232.977C137.395 227.546 127.003 219.969 127.003 219.969L164.706 158.467" fill="white"/>
<path d="M215.545 253.776C205.366 252.582 174.203 253.179 134.04 247.777C93.8776 242.374 84.2813 232.792 92.0863 230.404C99.8914 228.015 126.207 222.613 128.055 222.613C129.903 222.613 94.489 216.016 94.489 216.016L113.554 155.723C95.0718 187.895 75.7085 228.513 73.6329 237.668C70.235 252.582 139.372 262.15 166.483 262.15C183.27 262.119 200.044 261.232 216.74 259.491L222.071 262.818C222.071 262.818 222.071 275.699 226.819 277.035C228.218 277.388 229.645 277.612 231.084 277.703C233.045 276.041 234.354 273.74 234.781 271.206C235.79 264.808 225.739 255.041 215.545 253.776Z" fill="#4484FF"/>
<path opacity="0.5" d="M215.545 253.776C205.366 252.582 174.203 253.179 134.04 247.777C93.8776 242.374 84.2813 232.792 92.0863 230.404C99.8914 228.015 126.207 222.613 128.055 222.613C129.903 222.613 94.489 216.016 94.489 216.016L113.554 155.723C95.0718 187.895 75.7085 228.513 73.6329 237.668C70.235 252.582 139.372 262.15 166.483 262.15C183.27 262.119 200.044 261.232 216.74 259.491L222.071 262.818C222.071 262.818 222.071 275.699 226.819 277.035C228.218 277.388 229.645 277.612 231.084 277.703C233.045 276.041 234.354 273.74 234.781 271.206C235.79 264.808 225.739 255.041 215.545 253.776Z" fill="white"/>
<path d="M167.464 121.204C163.711 114.508 155.55 107.613 142.769 114.977C126.221 124.502 77.0165 222.755 73.6329 237.669C70.2493 252.582 139.372 262.15 166.483 262.15C183.27 262.119 200.044 261.232 216.74 259.491L222.071 262.818C222.071 262.818 222.071 275.699 226.819 277.035C231.568 278.371 246.481 278.457 251.215 275.684C255.95 272.912 254.613 265.519 254.613 265.519C254.613 265.519 257.997 280.433 263.414 281.783C265.21 282.251 267.092 282.28 268.901 281.869C269.328 281.767 269.72 281.555 270.04 281.256C270.36 280.957 270.597 280.579 270.728 280.161C270.858 279.742 270.878 279.297 270.784 278.869C270.691 278.44 270.488 278.044 270.195 277.717L268.773 276.026L259.404 255.354C259.404 255.354 256.817 244.18 253.433 244.18C250.05 244.18 222.81 243.824 222.81 243.824C222.81 243.824 176.719 238.408 157.057 232.977C137.395 227.546 127.003 219.969 127.003 219.969L164.706 158.467" stroke="#263238" stroke-width="1.1326" stroke-linecap="round" stroke-linejoin="round"/>
<path d="M243.908 255.127C243.908 255.127 248.941 269.884 248.941 272.301C248.867 273.977 248.456 275.621 247.733 277.134" stroke="#263238" stroke-width="1.1326" stroke-linecap="round" stroke-linejoin="round"/>
<path d="M235.264 257.402C235.264 257.402 240.084 271.092 240.496 273.907C240.659 274.625 240.633 275.373 240.421 276.078C240.21 276.783 239.819 277.421 239.288 277.931" stroke="#263238" stroke-width="1.1326" stroke-linecap="round" stroke-linejoin="round"/>
<path d="M254.613 265.462L251.358 252.98" stroke="#263238" stroke-width="1.1326" stroke-linecap="round" stroke-linejoin="round"/>
<path d="M222.071 262.747L228.81 265.05C228.81 265.05 232.847 267.069 229.62 269.884" fill="white"/>
<path d="M222.071 262.747L228.81 265.05C228.81 265.05 232.847 267.069 229.62 269.884" stroke="#263238" stroke-width="1.1326" stroke-linecap="round" stroke-linejoin="round"/>
<path d="M170.037 122.953C170.037 122.953 166.426 110.868 151.925 110.47C137.424 110.072 127.003 126.976 120.122 137.042C113.241 147.107 95.1714 186.147 93.11 190.98C91.0485 195.814 79.4333 216.741 79.4333 216.741C79.4333 216.741 85.4613 222.428 99.9625 222.428H131.766C131.766 222.428 132.96 222.016 133.77 218.405C134.185 216.821 134.456 215.203 134.58 213.571L170.805 153.59" fill="white"/>
<path d="M170.037 122.953C170.037 122.953 166.426 110.868 151.925 110.47C137.424 110.072 127.003 126.976 120.122 137.042C113.241 147.107 95.1714 186.147 93.11 190.98C91.0485 195.814 79.4333 216.741 79.4333 216.741C79.4333 216.741 85.4613 222.428 99.9625 222.428H131.766C131.766 222.428 132.96 222.016 133.77 218.405C134.185 216.821 134.456 215.203 134.58 213.571L170.805 153.59" stroke="#263238" stroke-width="1.1326" stroke-linecap="round" stroke-linejoin="round"/>
<path d="M268.93 262.903L271.801 270.097" stroke="#263238" stroke-width="1.1326" stroke-linecap="round" stroke-linejoin="round"/>
<path d="M271.091 257.871L274.688 266.5" stroke="#263238" stroke-width="1.1326" stroke-linecap="round" stroke-linejoin="round"/>
<path d="M246.339 200.15L230.701 229.963L254.997 208.197" stroke="#263238" stroke-width="1.1326" stroke-linecap="round" stroke-linejoin="round"/>
<path d="M211.906 137.354C204.82 135.076 198.251 131.429 192.571 126.621C192.571 126.621 189.386 124.36 184.794 121.645C187.339 134.113 195.116 169.982 201.229 176.053C207.1 181.924 219.54 156.832 224.488 142.728C220.442 140.609 216.235 138.812 211.906 137.354V137.354Z" fill="white" stroke="#263238" stroke-width="1.1326" stroke-linecap="round" stroke-linejoin="round"/>
<path d="M250.846 114.11C260.339 114.11 268.034 104.244 268.034 92.0738C268.034 79.9036 260.339 70.0377 250.846 70.0377C241.353 70.0377 233.658 79.9036 233.658 92.0738C233.658 104.244 241.353 114.11 250.846 114.11Z" fill="white" stroke="#263238" stroke-width="1.1326" stroke-linecap="round" stroke-linejoin="round"/>
<path d="M193.396 87.1405C193.396 87.1405 190.922 115.105 192.571 126.621C194.22 138.136 200.788 174.318 205.722 164.452C210.655 154.585 227.943 122.512 227.943 122.512C227.943 122.512 198.329 100.305 193.396 87.1405Z" fill="white"/>
<path d="M193.396 87.1405C193.396 87.1405 190.922 115.105 192.571 126.621C193.211 131.17 194.647 139.572 196.424 147.463L216.754 136.317L225.284 127.36L227.886 122.512C227.886 122.512 198.329 100.305 193.396 87.1405Z" fill="#4484FF"/>
<path opacity="0.5" d="M193.396 87.1405C193.396 87.1405 190.922 115.105 192.571 126.621C193.211 131.17 194.647 139.572 196.424 147.463L216.754 136.317L225.284 127.36L227.886 122.512C227.886 122.512 198.329 100.305 193.396 87.1405Z" fill="white"/>
<path d="M193.396 87.1405C193.396 87.1405 190.922 115.105 192.571 126.621C194.22 138.136 200.788 174.318 205.722 164.452C210.655 154.585 227.943 122.512 227.943 122.512C227.943 122.512 198.329 100.305 193.396 87.1405Z" stroke="#263238" stroke-width="1.1326" stroke-linecap="round" stroke-linejoin="round"/>
<path d="M188.448 82.2073C188.448 82.2073 182.761 47.6604 187.638 34.4956C192.514 21.3308 210.669 14.7626 232.051 21.345C253.433 27.9274 265.774 34.4956 269.015 49.3095C272.256 64.1235 260.798 73.1654 260.798 73.1654C260.798 73.1654 250.917 50.1341 239.472 47.6604C228.028 45.1866 217.266 44.3763 218.915 52.5936C220.564 60.811 221.389 71.5162 216.455 75.6249C211.522 79.7336 210.698 81.3828 208.224 87.9652C205.75 94.5476 198.357 101.13 192.585 93.6519C186.813 86.1738 188.448 82.2073 188.448 82.2073Z" fill="#263238" stroke="#263238" stroke-width="1.1326" stroke-linecap="round" stroke-linejoin="round"/>
<path d="M194.206 84.6668C194.206 84.6668 192.571 73.9758 185.164 78.0986C177.757 82.2215 188.448 97.8316 188.448 97.8316C189.64 108.931 193.914 119.474 200.788 128.27C212.304 143.07 232.207 145.074 243.581 135.62C256.376 124.986 262.489 76.4068 262.489 76.4068C262.489 76.4068 267.423 69.8244 256.803 53.3755C246.183 36.9266 209.887 36.9267 207.456 43.5091C205.025 50.0915 214.863 63.242 212.389 68.1753C209.915 73.1085 202.523 67.3649 200.874 76.4068C199.224 85.4487 197.504 92.0738 194.206 84.6668Z" fill="white"/>
<path d="M256.717 53.4182C246.026 36.9693 209.802 36.9693 207.371 43.5517C204.94 50.1341 214.778 63.2847 212.304 68.2179C209.83 73.1512 202.437 67.4076 200.788 76.4495C199.139 85.4914 197.504 92.088 194.206 84.6668C194.206 84.6668 192.571 73.9758 185.164 78.0987C177.757 82.2215 188.448 97.8316 188.448 97.8316C189.64 108.931 193.914 119.475 200.788 128.27C204.236 132.825 208.813 136.401 214.067 138.645C219.32 140.889 225.068 141.723 230.743 141.065C225.828 140.32 221.089 138.692 216.754 136.26C205.38 129.663 202.366 117.081 205.963 103.291C209.56 89.5006 217.948 55.9488 222.17 52.5367C226.393 49.1247 229.279 51.7548 238.321 60.1428C247.363 68.5307 252.111 67.9336 252.111 67.9336L261.366 61.9483C260.071 58.9736 258.515 56.1192 256.717 53.4182Z" fill="#4484FF"/>
<path opacity="0.5" d="M256.717 53.4182C246.026 36.9693 209.802 36.9693 207.371 43.5517C204.94 50.1341 214.778 63.2847 212.304 68.2179C209.83 73.1512 202.437 67.4076 200.788 76.4495C199.139 85.4914 197.504 92.088 194.206 84.6668C194.206 84.6668 192.571 73.9758 185.164 78.0987C177.757 82.2215 188.448 97.8316 188.448 97.8316C189.64 108.931 193.914 119.475 200.788 128.27C204.236 132.825 208.813 136.401 214.067 138.645C219.32 140.889 225.068 141.723 230.743 141.065C225.828 140.32 221.089 138.692 216.754 136.26C205.38 129.663 202.366 117.081 205.963 103.291C209.56 89.5006 217.948 55.9488 222.17 52.5367C226.393 49.1247 229.279 51.7548 238.321 60.1428C247.363 68.5307 252.111 67.9336 252.111 67.9336L261.366 61.9483C260.071 58.9736 258.515 56.1192 256.717 53.4182Z" fill="white"/>
<path d="M194.206 84.6668C194.206 84.6668 192.571 73.9758 185.164 78.0986C177.757 82.2215 188.448 97.8316 188.448 97.8316C189.64 108.931 193.914 119.474 200.788 128.27C212.304 143.07 232.207 145.074 243.581 135.62C256.376 124.986 262.489 76.4068 262.489 76.4068C262.489 76.4068 267.423 69.8244 256.803 53.3755C246.183 36.9266 209.887 36.9267 207.456 43.5091C205.025 50.0915 214.863 63.242 212.389 68.1753C209.915 73.1085 202.523 67.3649 200.874 76.4068C199.224 85.4487 197.504 92.0738 194.206 84.6668Z" stroke="#263238" stroke-width="1.1326" stroke-linecap="round" stroke-linejoin="round"/>
<path d="M225.653 113.129C215.261 110.868 213 103.177 213 103.177" stroke="#263238" stroke-width="1.1326" stroke-linecap="round" stroke-linejoin="round"/>
<path d="M228.369 91.4341C223.393 86.4724 218.872 86.0174 218.872 86.0174" stroke="#263238" stroke-width="1.1326" stroke-linecap="round" stroke-linejoin="round"/>
<path d="M215.716 102.281L209.375 103.646" stroke="#263238" stroke-width="1.1326" stroke-linecap="round" stroke-linejoin="round"/>
<path d="M213.001 103.191C211.999 104.538 211.281 106.074 210.893 107.707C210.504 109.34 210.452 111.035 210.74 112.688C211.579 118.29 217.934 119.669 217.934 119.669C217.934 119.669 218.417 112.233 222.043 112.688C222.043 112.688 214.806 108.608 213.001 103.191Z" stroke="#263238" stroke-width="1.1326" stroke-linecap="round" stroke-linejoin="round"/>
<path d="M212.304 103.518C212.304 103.518 211.323 112.916 217.991 115.389" stroke="#263238" stroke-width="0.566302" stroke-linecap="round" stroke-linejoin="round"/>
<path d="M248.571 77.9991C248.571 77.9991 241.718 84.8516 241.718 92.3155C241.718 99.7793 248.571 104.769 242.97 106.646C237.368 108.523 235.491 107.257 235.491 107.257" stroke="#263238" stroke-width="1.1326" stroke-linecap="round" stroke-linejoin="round"/>
<path d="M228.227 85.9321C227.644 88.2352 226.805 87.2116 225.654 86.9131C224.502 86.6145 223.393 87.169 223.976 84.8658C224.559 82.5627 225.981 80.9136 227.146 81.2121C228.312 81.5107 228.796 83.6147 228.227 85.9321Z" fill="#263238"/>
<path d="M251.884 89.6569C251.301 91.9743 249.879 93.6092 248.713 93.3106C247.548 93.0121 247.05 90.908 247.633 88.5907C248.216 86.2733 249.637 84.6526 250.803 84.9369C251.969 85.2213 252.466 87.3538 251.884 89.6569Z" fill="#263238"/>
<path d="M219.313 70.5353C219.313 70.5353 227.942 67.8625 236.245 79.1791" stroke="#263238" stroke-width="1.1326" stroke-linecap="round" stroke-linejoin="round"/>
<path d="M251.059 76.1367C251.059 76.1367 257.286 73.6487 258.537 79.8758" stroke="#263238" stroke-width="1.1326" stroke-linecap="round" stroke-linejoin="round"/>
<path d="M207.371 43.5517C207.371 43.5517 211.479 50.9445 222.171 52.5936C232.862 54.2428 246.026 52.5936 248.5 61.6497C250.974 70.7059 262.475 81.3827 275.64 75.6249C288.805 69.8671 290.44 44.3479 282.222 33.6852C274.005 23.0226 264.124 24.6291 254.258 20.5204C244.391 16.4117 244.391 9.00478 229.577 9.00478C214.764 9.00478 197.504 22.9799 207.371 31.2115" fill="#263238"/>
<path d="M207.371 43.5517C207.371 43.5517 211.479 50.9445 222.171 52.5936C232.862 54.2428 246.026 52.5936 248.5 61.6497C250.974 70.7059 262.475 81.3827 275.64 75.6249C288.805 69.8671 290.44 44.3479 282.222 33.6852C274.005 23.0226 264.124 24.6291 254.258 20.5204C244.391 16.4117 244.391 9.00478 229.577 9.00478C214.764 9.00478 197.504 22.9799 207.371 31.2115" stroke="#263238" stroke-width="1.1326" stroke-linecap="round" stroke-linejoin="round"/>
<path d="M190.254 105.58C199.746 105.58 207.442 95.7139 207.442 83.5437C207.442 71.3735 199.746 61.5076 190.254 61.5076C180.761 61.5076 173.065 71.3735 173.065 83.5437C173.065 95.7139 180.761 105.58 190.254 105.58Z" fill="white" stroke="#263238" stroke-width="1.1326" stroke-linecap="round" stroke-linejoin="round"/>
<path d="M187.552 99.5519C194.399 99.5519 199.949 92.4293 199.949 83.6432C199.949 74.8571 194.399 67.7346 187.552 67.7346C180.706 67.7346 175.155 74.8571 175.155 83.6432C175.155 92.4293 180.706 99.5519 187.552 99.5519Z" fill="#263238" stroke="#263238" stroke-width="1.1326" stroke-linecap="round" stroke-linejoin="round"/>
<path d="M185.164 81.3117C184.387 81.3151 183.635 81.0357 183.049 80.5256C182.463 80.0154 182.083 79.3094 181.979 78.5394C181.134 70.9793 181.157 63.3471 182.05 55.7924C182.099 55.3723 182.23 54.9659 182.435 54.5964C182.641 54.2269 182.917 53.9015 183.249 53.6388C183.58 53.3761 183.96 53.1812 184.367 53.0653C184.773 52.9494 185.199 52.9147 185.619 52.9632C186.039 53.0118 186.445 53.1426 186.815 53.3482C187.184 53.5538 187.51 53.8301 187.772 54.1615C188.035 54.4929 188.23 54.8727 188.346 55.2794C188.462 55.6861 188.497 56.1116 188.448 56.5317C187.635 63.5627 187.601 70.6622 188.348 77.7006C188.409 78.1191 188.385 78.5454 188.279 78.9547C188.174 79.3641 187.988 79.7485 187.733 80.0856C187.478 80.4227 187.158 80.7059 186.793 80.9188C186.428 81.1317 186.024 81.27 185.605 81.3259C185.458 81.3348 185.31 81.3301 185.164 81.3117Z" fill="white" stroke="#263238" stroke-width="1.1326" stroke-linecap="round" stroke-linejoin="round"/>
<path d="M250.689 18.8002C251.792 19.4833 252.947 20.0776 254.144 20.5773C260.087 23.051 266.044 23.4206 271.631 25.7096C271.508 24.9711 271.237 24.2651 270.835 23.6339C263.03 11.251 240.226 -8.24029 209.787 6.57366C192.855 14.7768 182.449 31.6948 179.605 55.4654C179.444 56.9486 179.873 58.4357 180.798 59.6058C181.724 60.776 183.072 61.5356 184.553 61.7208H185.221C186.599 61.7071 187.925 61.1936 188.952 60.2757C189.98 59.3579 190.639 58.0982 190.808 56.7307C192.4 42.9546 197.916 24.8139 214.778 16.5965C230.558 8.97632 242.771 13.1987 250.689 18.8002Z" fill="white" stroke="#263238" stroke-width="1.1326" stroke-linecap="round" stroke-linejoin="round"/>
<path d="M387.825 278.57H188.078V286.631H387.825V278.57Z" fill="white" stroke="#263238" stroke-width="1.1326" stroke-linecap="round" stroke-linejoin="round"/>
<path d="M444.138 278.57H244.391V286.631H444.138V278.57Z" fill="white" stroke="#263238" stroke-width="1.1326" stroke-linecap="round" stroke-linejoin="round"/>
<path d="M125.581 265.562H155.067C158.321 265.562 161.442 266.855 163.742 269.156C166.043 271.456 167.336 274.577 167.336 277.831V292.574H113.312V277.788C113.323 274.542 114.621 271.432 116.921 269.14C119.22 266.849 122.335 265.562 125.581 265.562Z" fill="#4484FF" stroke="#263238" stroke-width="1.1326" stroke-linecap="round" stroke-linejoin="round"/>
<path d="M127.003 271.746H139.514C142.768 271.746 145.888 273.039 148.189 275.34C150.49 277.641 151.783 280.761 151.783 284.015V298.758H114.805V284.001C114.809 280.762 116.093 277.656 118.378 275.36C120.663 273.064 123.764 271.765 127.003 271.746V271.746Z" fill="#263238" stroke="#263238" stroke-width="1.1326" stroke-linecap="round" stroke-linejoin="round"/>
<path d="M127.003 275.599H134.893C138.147 275.599 141.268 276.892 143.569 279.193C145.87 281.494 147.162 284.614 147.162 287.868V293.356H114.748V287.868C114.748 284.617 116.039 281.498 118.337 279.198C120.634 276.897 123.751 275.603 127.003 275.599V275.599Z" fill="#4484FF" stroke="#263238" stroke-width="1.1326" stroke-linecap="round" stroke-linejoin="round"/>
<path d="M492.276 114.067H307.798V254.899H492.276V114.067Z" fill="white" stroke="#263238" stroke-width="1.1326" stroke-linecap="round" stroke-linejoin="round"/>
<path d="M499.897 114.067H315.419V254.899H499.897V114.067Z" fill="#263238" stroke="#263238" stroke-width="1.1326" stroke-linecap="round" stroke-linejoin="round"/>
<path d="M432.295 205.126H389.304V286.617H432.295V205.126Z" fill="white" stroke="#263238" stroke-width="1.1326" stroke-linecap="round" stroke-linejoin="round"/>
<path d="M581.885 283.944H10.1973V299H581.885V283.944Z" fill="white" stroke="#263238" stroke-width="1.1326" stroke-linecap="round" stroke-linejoin="round"/>
<path d="M581.885 283.944H208.281V299H581.885V283.944Z" fill="#263238" stroke="#263238" stroke-width="1.1326" stroke-linecap="round" stroke-linejoin="round"/>
</svg>
